<?xml version="1.0" encoding="UTF-8"?>
<svg width="42px" height="42px" viewBox="0 0 42 42" version="1.1" xmlns="http://www.w3.org/2000/svg" xmlns:xlink="http://www.w3.org/1999/xlink">
    <!-- Generator: Sketch 47.1 (45422) - http://www.bohemiancoding.com/sketch -->
    <title>3</title>
    <desc>Created with Sketch.</desc>
    <defs>
        <linearGradient x1="50%" y1="0%" x2="50%" y2="100%" id="linearGradient-1">
            <stop stop-color="#1DC1FE" offset="0%"></stop>
            <stop stop-color="#2F8BEE" offset="100%"></stop>
        </linearGradient>
    </defs>
    <g id="Page-1" stroke="none" stroke-width="1" fill="none" fill-rule="evenodd">
        <g id="Artboard" transform="translate(-744.000000, -525.000000)">
            <g id="Group-3-Copy" transform="translate(744.000000, 525.000000)">
                <path d="M23.9926619,35.4026549 C24.7403712,35.0722057 25.4094838,34.6046541 26,34 C28.0029117,30.6699181 29.0029117,26.3365848 29,21 C28.9956325,12.9951228 23.5044894,5 21,5 C18.4955106,5 12.9709484,13 13,21 C13.0193677,26.3333333 14.0193677,30.6666667 16,34 C16.5772355,34.6249785 17.2462047,35.1034827 18.0069075,35.4355126 C18.1222381,26.6662125 19.6602801,22.5 21,22.5 C22.3380776,22.5 23.8739913,26.6506726 23.9926619,35.4026549 Z" id="Combined-Shape" fill="url(#linearGradient-1)"></path>
                <path d="M11.5,23 C10.1159586,25.5444368 8.98806418,28.0145979 8.11631674,30.4104833 C6.80869558,34.0043113 7.49885159,36.0727547 9.11631674,36.036626 C11.2989006,35.9878744 9.43017198,32.9975361 14,33 C12.5685717,30.3333333 11.7352384,27 11.5,23 Z" id="Path-2" fill="#9FD7FA"></path>
                <path d="M32.0691516,23 C30.6851102,25.5444368 29.5572157,28.0145979 28.6854683,30.4104833 C27.3778471,34.0043113 28.0680031,36.0727547 29.6854683,36.036626 C31.8680522,35.9878744 29.9993235,32.9975361 34.5691516,33 C33.1375842,30.3333333 32.3042509,27 32.0691516,23 Z" id="Path-2-Copy" fill="#9FD7FA" transform="translate(31.284576, 29.518546) scale(-1, 1) translate(-31.284576, -29.518546) "></path>
                <path d="M21,40 C22.1045695,40 23,38.9975325 23,36.5 C23,32.3578644 22.1045695,25 21,25 C19.8954305,25 19,32.3578644 19,36.5 C19,39.0037693 19.8954305,40 21,40 Z" id="Oval-3" fill="#9FD7FA"></path>
            </g>
        </g>
    </g>
</svg>