<?xml version="1.0" encoding="UTF-8"?>
<svg width="42px" height="42px" viewBox="0 0 42 42" version="1.1" xmlns="http://www.w3.org/2000/svg" xmlns:xlink="http://www.w3.org/1999/xlink">
    <!-- Generator: Sketch 47.1 (45422) - http://www.bohemiancoding.com/sketch -->
    <title>4</title>
    <desc>Created with Sketch.</desc>
    <defs>
        <linearGradient x1="50%" y1="0%" x2="50%" y2="100%" id="linearGradient-1">
            <stop stop-color="#1DC1FE" offset="0%"></stop>
            <stop stop-color="#2F8BEE" offset="100%"></stop>
        </linearGradient>
    </defs>
    <g id="Page-1" stroke="none" stroke-width="1" fill="none" fill-rule="evenodd">
        <g id="Artboard" transform="translate(-796.000000, -525.000000)">
            <g id="Group-3-Copy" transform="translate(796.000000, 525.000000)">
                <path d="M23.7232065,17 L29.8371882,17 L29.8371882,17 C31.2042149,17 32.497123,17.6214037 33.3510978,18.6888723 L36,22 L36,22 C36.2329432,22.291179 36.4044232,22.611692 36.5161815,22.9458647 C35.4829262,22.3444639 34.28169,22 33,22 L9,22 L9,22 C7.718763,22 6.517923,22.3442205 5.48491429,22.9452271 C5.59894249,22.6047334 5.77248363,22.2843955 6,22 L8.64890217,18.6888723 C9.50287701,17.6214037 10.7957851,17 12.1628118,17 L18.2767935,17 L19.7747584,18.7836921 C19.8343726,18.8546774 19.9000429,18.9203477 19.9710282,18.9799619 C20.6477104,19.5482473 21.6569561,19.4603744 22.2252416,18.7836921 L22.2252416,18.7836921 L23.7232065,17 Z M8,24 L34,24 C36.209139,24 38,25.790861 38,28 L38,30 C38,32.209139 36.209139,34 34,34 L8,34 C5.790861,34 4,32.209139 4,30 L4,28 C4,25.790861 5.790861,24 8,24 L8,24 Z M33.5,30 C34.3284271,30 35,29.3284271 35,28.5 C35,27.6715729 34.3284271,27 33.5,27 C32.6715729,27 32,27.6715729 32,28.5 C32,29.3284271 32.6715729,30 33.5,30 Z M28.5,30 C29.3284271,30 30,29.3284271 30,28.5 C30,27.6715729 29.3284271,27 28.5,27 C27.6715729,27 27,27.6715729 27,28.5 C27,29.3284271 27.6715729,30 28.5,30 Z" id="Combined-Shape" fill="url(#linearGradient-1)"></path>
                <path d="M20,3 L22,3 L22,3 C22.5522847,3 23,3.44771525 23,4 L23,12 L24.9324792,12 L24.9324792,12 C25.2086216,12 25.4324792,12.2238576 25.4324792,12.5 C25.4324792,12.6169683 25.3914711,12.7302347 25.3165898,12.8200922 L21.3841106,17.5390672 L21.3841106,17.5390672 C21.2073286,17.7512057 20.8920462,17.7798677 20.6799078,17.6030857 C20.6566763,17.5837261 20.635249,17.5622988 20.6158894,17.5390672 L16.6834102,12.8200922 L16.6834102,12.8200922 C16.5066281,12.6079538 16.5352902,12.2926714 16.7474286,12.1158894 C16.8372861,12.0410081 16.9505526,12 17.0675208,12 L19,12 L19,4 L19,4 C19,3.44771525 19.4477153,3 20,3 Z" id="Rectangle-8" fill="#9FD7FA"></path>
            </g>
        </g>
    </g>
</svg>