<?xml version="1.0" encoding="UTF-8"?>
<svg width="42px" height="42px" viewBox="0 0 42 42" version="1.1" xmlns="http://www.w3.org/2000/svg" xmlns:xlink="http://www.w3.org/1999/xlink">
    <!-- Generator: Sketch 47.1 (45422) - http://www.bohemiancoding.com/sketch -->
    <title>5</title>
    <desc>Created with Sketch.</desc>
    <defs>
        <linearGradient x1="50%" y1="0%" x2="50%" y2="100%" id="linearGradient-1">
            <stop stop-color="#1DC1FE" offset="0%"></stop>
            <stop stop-color="#2F8BEE" offset="100%"></stop>
        </linearGradient>
    </defs>
    <g id="Page-1" stroke="none" stroke-width="1" fill="none" fill-rule="evenodd">
        <g id="Artboard" transform="translate(-848.000000, -525.000000)">
            <g id="Group-3-Copy" transform="translate(848.000000, 525.000000)">
                <path d="M7.0419541,23.0778768 L7.0419541,23.0778768 C7.04002728,23.0525705 7.03906283,23.0272 7.03906283,23.0018204 C7.03906283,22.448542 7.48758362,22.0000212 8.04086206,22.0000212 L8.04086206,22 L12.0891154,21.9999598 C12.5814203,21.9999598 12.9944987,22.371181 13.0468968,22.8606896 C13.4764543,26.873656 16.8735239,29.9989227 21.0005386,29.9989227 C25.4185192,29.9989227 29,26.4174419 29,21.9994614 C29,17.5814808 25.4185192,14 21,14 L21.0010773,8 C28.7330638,8 35.0010773,14.2680135 35.0010773,22 C35.0010773,29.7319865 28.7330638,36 21.0010773,36 C13.6317694,36 7.59231646,30.3062138 7.0419541,23.0778768 Z M14.272701,10.2901764 L19.2956649,5.30635987 L19.2956649,5.30635987 C19.6877139,4.91736631 20.320874,4.91984328 20.7098676,5.31189233 C20.8957143,5.49919881 21,5.75236633 21,6.01622747 L21,15.9838606 L21,15.9838606 C21,16.5361454 20.5522847,16.9838606 20,16.9838606 C19.7361389,16.9838606 19.4829713,16.8795749 19.2956649,16.6937282 L14.272701,11.7099116 C13.880652,11.3209181 13.878175,10.687758 14.2671686,10.2957089 C14.2690055,10.2938575 14.2708497,10.2920134 14.272701,10.2901764 L14.272701,10.2901764 Z" id="Combined-Shape" fill="url(#linearGradient-1)"></path>
                <rect id="Rectangle-10" fill="#9FD7FA" x="7" y="17" width="6" height="3"></rect>
            </g>
        </g>
    </g>
</svg>