<?xml version="1.0" encoding="UTF-8"?>
<svg width="42px" height="42px" viewBox="0 0 42 42" version="1.1" xmlns="http://www.w3.org/2000/svg" xmlns:xlink="http://www.w3.org/1999/xlink">
    <!-- Generator: Sketch 47.1 (45422) - http://www.bohemiancoding.com/sketch -->
    <title>6</title>
    <desc>Created with Sketch.</desc>
    <defs>
        <linearGradient x1="50%" y1="0%" x2="50%" y2="100%" id="linearGradient-1">
            <stop stop-color="#1DC1FE" offset="0%"></stop>
            <stop stop-color="#2F8BEE" offset="100%"></stop>
        </linearGradient>
    </defs>
    <g id="Page-1" stroke="none" stroke-width="1" fill="none" fill-rule="evenodd">
        <g id="Artboard" transform="translate(-902.000000, -525.000000)">
            <g id="Group-3-Copy-2" transform="translate(902.000000, 525.000000)">
                <path d="M32.4842366,39.9198563 C32.4439458,39.3178169 32.0683944,38.7621099 31.4714183,38.5209159 C30.8744422,38.2797219 30.2182666,38.4185841 29.7710721,38.8236667 C29.1724408,38.4051524 28.6590286,37.894962 28.2426081,37.3208301 C28.6395215,36.8666488 28.766747,36.208384 28.5152524,35.6158998 C28.2637578,35.0234156 27.7018634,34.6576648 27.0994336,34.6276796 C26.9757076,33.9293063 26.9653534,33.2055804 27.0801437,32.4842366 C27.6821831,32.4439458 28.2378901,32.0683944 28.4790841,31.4714183 C28.7202781,30.8744422 28.5814159,30.2182666 28.1763333,29.7710721 C28.5948476,29.1724408 29.105038,28.6590286 29.6791699,28.2426081 C30.1333512,28.6395215 30.791616,28.766747 31.3841002,28.5152524 C31.9765844,28.2637578 32.3423352,27.7018634 32.3723204,27.0994336 C33.0706937,26.9757076 33.7944196,26.9653534 34.5157634,27.0801437 C34.5560542,27.6821831 34.9316056,28.2378901 35.5285817,28.4790841 C36.1255578,28.7202781 36.7817334,28.5814159 37.2289279,28.1763333 C37.8275592,28.5948476 38.3409714,29.105038 38.7573919,29.6791699 C38.3604785,30.1333512 38.233253,30.791616 38.4847476,31.3841002 C38.7362422,31.9765844 39.2981366,32.3423352 39.9005664,32.3723204 C40.0242924,33.0706937 40.0153566,33.9063358 39.9005664,34.6276796 C39.298527,34.6679704 38.7621099,34.9316056 38.5209159,35.5285817 C38.2797219,36.1255578 38.4185841,36.7817334 38.8236667,37.2289279 C38.4051524,37.8275592 37.894962,38.3409714 37.3208301,38.7573919 C36.8666488,38.3604785 36.208384,38.233253 35.6158998,38.4847476 C35.0234156,38.7362422 34.6576648,39.2981366 34.6276796,39.9005664 C33.9293063,40.0242924 33.2055804,40.0346466 32.4842366,39.9198563 Z M32.4567294,36.0821853 C33.882831,36.6583678 35.5060029,35.9693722 36.0821853,34.5432706 C36.6583678,33.117169 35.9693722,31.4939971 34.5432706,30.9178147 C33.117169,30.3416322 31.4939971,31.0306278 30.9178147,32.4567294 C30.3416322,33.882831 31.0306278,35.5060029 32.4567294,36.0821853 Z" id="Combined-Shape-Copy-2" fill="#9FD7FA"></path>
                <path d="M26.947941,31.7236148 C25.5197059,32.6176626 23.9301521,33.2779068 22.2328946,33.6507324 C21.7060849,32.3819135 20.4550585,31.4896011 18.9956213,31.4896011 C17.5368609,31.4896011 16.286318,32.3810862 15.7590814,33.6489675 C14.0622788,33.2752615 12.4732498,32.6142604 11.0455984,31.7195683 C11.803014,30.3831045 11.6121902,28.6548808 10.4731269,27.5158175 C9.3349308,26.3776214 7.60847097,26.1862215 6.27242912,26.9416177 C5.37927926,25.5132391 4.71990331,23.9236959 4.34787879,22.2265656 C5.61156072,21.6974263 6.4993433,20.4490511 6.4993433,18.9933231 C6.4993433,17.5386266 5.61281847,16.2909891 4.35056463,15.7612064 C4.72393264,14.06476 5.38446699,12.476008 6.27860594,11.0485125 C7.61378839,11.7998328 9.33668405,11.6072715 10.4731269,10.4708286 C11.6093895,9.33456601 11.8020699,7.61203656 11.0511681,6.27694292 C12.4788164,5.38312326 14.0676772,4.72292596 15.764194,4.34990743 C16.294369,5.61128853 17.5415554,6.49704504 18.9956213,6.49704504 C20.4503637,6.49704504 21.698034,5.61046424 22.2277881,4.34814682 C23.9247519,4.72028417 25.5141304,5.37972122 26.9423569,6.27289133 C26.1887838,7.60855005 26.3807034,9.33341627 27.5181158,10.4708286 C28.6563952,11.6091081 30.3830246,11.8004527 31.7191071,11.0448624 C32.6138172,12.4723591 33.2748781,14.0612201 33.6486968,15.7578526 C32.3821804,16.2857094 31.4918993,17.5355481 31.4918993,18.9933231 C31.4918993,20.4521299 32.3834412,21.702706 33.651387,22.2299134 C33.2789109,23.9272376 32.6190051,25.516897 31.7252787,26.9452823 C30.3883455,26.1856062 28.6581487,26.3757846 27.5181158,27.5158175 C26.3779025,28.6560307 26.1878443,30.3865945 26.947941,31.7236148 Z M19,26 C22.8659932,26 26,22.8659932 26,19 C26,15.1340068 22.8659932,12 19,12 C15.1340068,12 12,15.1340068 12,19 C12,22.8659932 15.1340068,26 19,26 Z" id="Combined-Shape-Copy" fill="url(#linearGradient-1)"></path>
            </g>
        </g>
    </g>
</svg>