<?xml version="1.0" encoding="UTF-8"?>
<svg width="42px" height="42px" viewBox="0 0 42 42" version="1.1" xmlns="http://www.w3.org/2000/svg" xmlns:xlink="http://www.w3.org/1999/xlink">
    <!-- Generator: Sketch 47.1 (45422) - http://www.bohemiancoding.com/sketch -->
    <title>7</title>
    <desc>Created with Sketch.</desc>
    <defs>
        <linearGradient x1="50%" y1="0%" x2="50%" y2="100%" id="linearGradient-1">
            <stop stop-color="#1DC1FE" offset="0%"></stop>
            <stop stop-color="#2F8BEE" offset="100%"></stop>
        </linearGradient>
    </defs>
    <g id="Page-1" stroke="none" stroke-width="1" fill="none" fill-rule="evenodd">
        <g id="Artboard" transform="translate(-954.000000, -525.000000)">
            <g id="Group-3-Copy-3" transform="translate(954.000000, 525.000000)">
                <path d="M12.1014723,32 C12.407832,33.04407 13.3729487,33.8064516 14.516129,33.8064516 L20.3870968,33.8064516 L20.4026336,34.6451613 C19.8714061,35.0903119 19.5483871,35.6781543 19.5483871,36.3225806 C19.5483871,37.7122003 21.0503995,38.8387097 22.9032258,38.8387097 C24.7560521,38.8387097 26.2580645,37.7122003 26.2580645,36.3225806 C26.2580645,35.6781543 25.9350455,35.0903119 25.4193548,34.6451613 L25.4193548,33.8064516 L30.4516129,33.8064516 C31.8412326,33.8064516 32.9677419,32.6799423 32.9677419,31.2903226 L32.9677419,25.4193548 L33.8064516,25.403818 C34.2516022,25.9350455 34.8394447,26.2580645 35.483871,26.2580645 C36.8734907,26.2580645 38,24.7560521 38,22.9032258 C38,21.0503995 36.8734907,19.5483871 35.483871,19.5483871 C34.8394447,19.5483871 34.2516022,19.8714061 33.8064516,20.3870968 L32.9677419,20.3870968 L32.9677419,14.516129 C32.9677419,13.3148551 32.1259069,12.3102022 31,12.0599337 L31,28 C31,30.209139 29.209139,32 27,32 L12.1014723,32 Z" id="Combined-Shape" fill="#9FD7FA"></path>
                <path d="M29,22.125 L29,16.875 L28.1666667,16.875 C27.7243696,16.3369958 27.1402954,16 26.5,16 C25.1192881,16 24,17.5670034 24,19.5 C24,21.4329966 25.1192881,23 26.5,23 C27.1402954,23 27.7243696,22.6630042 28.1666667,22.1087909 L29,22.125 Z M5.53125,22.4516129 C4.13327923,22.4516129 3,20.9496005 3,19.0967742 C3,17.2439479 4.13327923,15.7419355 5.53125,15.7419355 C6.17954906,15.7419355 6.77092421,16.0649545 7.21875,16.596182 L8.0625,16.5806452 L8.0625,11.5483871 C8.0625,10.1587674 9.19577923,9.03225806 10.59375,9.03225806 L15.5,9.03225806 L15.5,8.19354839 C14.9812103,7.74839778 14.65625,7.16055533 14.65625,6.51612903 C14.65625,5.12650934 16.167289,4 18.03125,4 C19.895211,4 21.40625,5.12650934 21.40625,6.51612903 C21.40625,7.16055533 21.0812897,7.74839778 20.5468698,8.19354839 L20.5625,9.03225806 L26.46875,9.03225806 C27.8667208,9.03225806 29,10.1587674 29,11.5483871 L29,27.483871 C29,28.8734907 27.8667208,30 26.46875,30 L10.59375,30 C9.19577923,30 8.0625,28.8734907 8.0625,27.483871 L8.0625,21.6129032 L7.21875,21.6129032 C6.77092421,22.1285939 6.17954906,22.4516129 5.53125,22.4516129 Z M15.875,30 L21.125,30 L21.125,29.1666667 C21.6630042,28.7243696 22,28.1402954 22,27.5 C22,26.1192881 20.4329966,25 18.5,25 C16.5670034,25 15,26.1192881 15,27.5 C15,28.1402954 15.3369958,28.7243696 15.8912091,29.1666667 L15.875,30 Z" id="Combined-Shape" fill="url(#linearGradient-1)"></path>
            </g>
        </g>
    </g>
</svg>