<?xml version="1.0" encoding="UTF-8"?>
<svg width="42px" height="42px" viewBox="0 0 42 42" version="1.1" xmlns="http://www.w3.org/2000/svg" xmlns:xlink="http://www.w3.org/1999/xlink">
    <!-- Generator: Sketch 47.1 (45422) - http://www.bohemiancoding.com/sketch -->
    <title>8</title>
    <desc>Created with Sketch.</desc>
    <defs>
        <linearGradient x1="50%" y1="0%" x2="50%" y2="100%" id="linearGradient-1">
            <stop stop-color="#1DC1FE" offset="0%"></stop>
            <stop stop-color="#2F8BEE" offset="100%"></stop>
        </linearGradient>
    </defs>
    <g id="Page-1" stroke="none" stroke-width="1" fill="none" fill-rule="evenodd">
        <g id="Artboard" transform="translate(-1007.000000, -526.000000)">
            <g id="Group-3-Copy-4" transform="translate(1006.000000, 525.000000)">
                <g id="HTML" transform="translate(8.000000, 7.000000)">
                    <path d="M14,10 L16.5,10 L17.75,11.75 L19,10 L21.5,10 L21.5,19.9778341 L19,19.9778341 L19,14.1735275 L17.75,15.75 L16.5,14.1735275 L16.497979,20 L14.0113177,20 L14,10 Z M2.5,20 L0,19.9905003 L0,10.0031666 L2.5,10.0031666 L2.5,13.75 L4.00185628,13.75 L4,10 L6.5,10.0094997 L6.5,20 L4,20 L4,16.25 L2.5,16.25 L2.5,20 Z M9,12.4920836 L7.5,12.4920836 L7.5,10.0063331 L13,10.0063331 L13,12.4794174 L11.5,12.4794174 L11.5,20 L9,20 L9,12.4920836 Z M23,19.9873338 L23,10 L25.5,10 L25.5,17.5 L28,17.5 L28,20 L23,19.9873338 Z" id="Shape" fill="url(#linearGradient-1)" fill-rule="nonzero"></path>
                    <path d="M26,2 L26,8 L21.9991759,8 L21.9991759,4 L5.99587943,4 L5.99587943,8 L2.01481019,8 L2.00000623,2.0049387 L2.00000623,2.0049387 C1.99727866,0.900372571 2.8904953,0.00273366825 3.99506143,6.097707e-06 C3.99670766,2.03257055e-06 3.9983539,-1.10992062e-15 4.00000013,-1.11022302e-15 L24,-4.4408921e-16 C25.1045695,-6.46995335e-16 26,0.8954305 26,2 L26,2 Z M23.9967075,30 L4.02275321,30 C2.91818371,30 2.02275321,29.1045695 2.02275321,28 L2.02275321,22 L5.99587943,22 L5.99587943,26 L21.9991759,26 L21.9991759,22 L25.9967075,22 L25.9967075,28 C25.9967075,29.1045695 25.101277,30 23.9967075,30 Z" id="Combined-Shape" fill="#9FD7FA"></path>
                </g>
            </g>
        </g>
    </g>
</svg>