<?xml version="1.0" encoding="UTF-8"?>
<svg width="42px" height="42px" viewBox="0 0 42 42" version="1.1" xmlns="http://www.w3.org/2000/svg" xmlns:xlink="http://www.w3.org/1999/xlink">
    <!-- Generator: Sketch 47.1 (45422) - http://www.bohemiancoding.com/sketch -->
    <title>9</title>
    <desc>Created with Sketch.</desc>
    <defs>
        <linearGradient x1="50%" y1="0%" x2="50%" y2="100%" id="linearGradient-1">
            <stop stop-color="#1DC1FE" offset="0%"></stop>
            <stop stop-color="#2F8BEE" offset="100%"></stop>
        </linearGradient>
    </defs>
    <g id="Page-1" stroke="none" stroke-width="1" fill="none" fill-rule="evenodd">
        <g id="Artboard" transform="translate(-1058.000000, -525.000000)">
            <g id="Group-3-Copy-5" transform="translate(1058.000000, 525.000000)">
                <rect id="Rectangle-3" opacity="0.164572011" x="0" y="0" width="42" height="42"></rect>
                <path d="M29.1517398,22.9775602 L36.9161684,22.9775602 C36.9744275,22.4283465 37.0023619,21.8763287 36.9998438,21.3240287 C37.0031759,18.7748312 36.3319963,16.270287 35.0546616,14.0654719 C36.3337004,10.6615266 36.2880593,7.77247294 34.5754295,6.044919 C32.9475619,4.4207788 28.5790521,4.68421173 23.6411146,6.87549471 C23.273001,6.84800076 22.9039955,6.83420277 22.5348601,6.83412921 C15.7571497,6.83412921 10.0704801,11.5062537 8.49803389,17.8025183 C10.624694,15.075661 12.8611103,13.0988255 15.8495187,11.6586529 C15.1373957,12.3545657 14.4295821,13.0548898 13.7261187,13.7595849 C5.84650055,21.6505985 3.3612314,31.9593167 6.03558531,34.6382772 C8.06770307,36.6738953 11.7515957,36.3299085 15.9820954,34.2540135 C18.0116848,35.2890067 20.2574158,35.8269705 22.5348601,35.8237254 C28.8876732,35.8237254 34.2722419,31.7274522 36.2217709,26.0222788 L28.3975742,26.0222788 C27.3206605,28.0121771 25.2146475,29.366353 22.7978401,29.366353 C20.3810327,29.366353 18.2750197,28.0121771 17.198106,26.0222788 C16.7030849,25.0929902 16.4440741,24.0559101 16.4439403,23.0025972 L16.4439403,22.9786488 L29.1495665,22.9786488 L29.1517398,22.9775602 Z M16,19 C16.177007,15.6622517 18.7988557,13 22,13 C25.2011443,13 27.822993,15.6622517 28,19 L16,19 Z M34.215564,7.8943658 C35.2535366,9.08350413 35.2269481,11.2693861 34.3393026,14 C32.8068097,11.3506004 30.5942176,9.29763826 28,8.11805362 C30.7897431,6.76201869 33.0579433,6.58237303 34.215564,7.8943658 L34.215564,7.8943658 Z M7.85620566,34.1395982 C6.41856562,32.6936751 6.85152285,29.6577947 8.70435778,26 C9.85403579,29.2336189 12.0776707,31.9693321 15,33.7454585 C11.792786,35.2092464 9.16839912,35.4582354 7.85620566,34.1407147 L7.85620566,34.1395982 Z" id="Shape" fill="url(#linearGradient-1)" fill-rule="nonzero"></path>
            </g>
        </g>
    </g>
</svg>