<?xml version="1.0" encoding="UTF-8"?>
<svg width="128px" height="128px" viewBox="0 0 128 128" version="1.1" xmlns="http://www.w3.org/2000/svg" xmlns:xlink="http://www.w3.org/1999/xlink">
    <!-- Generator: Sketch 47.1 (45422) - http://www.bohemiancoding.com/sketch -->
    <title>b_api</title>
    <desc>Created with Sketch.</desc>
    <defs></defs>
    <g id="Page-1" stroke="none" stroke-width="1" fill="none" fill-rule="evenodd">
        <g id="Artboard-Copy" transform="translate(-721.000000, -1192.000000)" fill="#FFFFFF">
            <g id="Group-2" transform="translate(72.000000, 1093.000000)">
                <g id="Group" transform="translate(578.000000, 73.000000)">
                    <g id="Group-11" transform="translate(71.000000, 26.000000)">
                        <g id="Group-16">
                            <path d="M22.736544,112.07969 C21.1744469,113.641787 18.641787,113.641787 17.0796898,112.07969 C15.5175926,110.517593 15.5175926,107.984933 17.0796898,106.422836 L22.736544,100.765981 C22.8331046,100.669421 22.9333737,100.578829 23.036893,100.494206 C14.6463777,88.8050012 15.5776752,72.569511 25.9185245,62.2286617 L32.636039,55.5111473 C34.5886604,53.5585258 37.7544853,53.5585258 39.7071068,55.5111473 L75.0624458,90.8664863 C77.0150673,92.8191078 77.0150673,95.9849327 75.0624458,97.9375542 L68.3449314,104.655069 C57.5278599,115.47214 40.2607199,115.993037 28.4943803,106.318185 C28.4724455,106.341746 26.5531667,108.262247 22.736544,112.07969 Z M58.0918831,51.2685066 C59.6539803,52.8306038 59.6539803,55.3632637 58.0918831,56.9253609 L49.6066017,65.4106422 L43.9497475,59.753788 L52.4350288,51.2685066 C53.997126,49.7064094 56.5297859,49.7064094 58.0918831,51.2685066 Z M79.3050865,72.48171 C80.8671837,74.0438072 80.8671837,76.5764671 79.3050865,78.1385643 L70.8198052,86.6238457 L65.1629509,80.9669914 L73.6482323,72.48171 C75.2103294,70.9196129 77.7429894,70.9196129 79.3050865,72.48171 Z" id="Combined-Shape" fill-rule="nonzero"></path>
                            <path d="M105.114484,67.885516 L98.3969696,74.6030304 C96.4443482,76.5556518 93.2785233,76.5556518 91.3259018,74.6030304 L55.9705627,39.2476913 C54.0179413,37.2950699 54.0179413,34.129245 55.9705627,32.1766235 L62.6880772,25.4591091 C73.0289265,15.1182598 89.2644166,14.1869622 100.953622,22.5774775 C101.038244,22.4739583 101.128836,22.3736891 101.225397,22.2771286 L106.882251,16.6202743 C108.444348,15.0581772 110.977008,15.0581772 112.539105,16.6202743 C114.101202,18.1823715 114.101202,20.7150314 112.539105,22.2771286 L106.882251,27.9339828 C116.452452,39.8013044 115.931556,57.0684444 105.114484,67.885516 Z" id="Path" opacity="0.6"></path>
                        </g>
                    </g>
                </g>
            </g>
        </g>
    </g>
</svg>