<?xml version="1.0" encoding="UTF-8"?>
<svg width="128px" height="128px" viewBox="0 0 128 128" version="1.1" xmlns="http://www.w3.org/2000/svg" xmlns:xlink="http://www.w3.org/1999/xlink">
    <!-- Generator: Sketch 47.1 (45422) - http://www.bohemiancoding.com/sketch -->
    <title>b_design</title>
    <desc>Created with Sketch.</desc>
    <defs></defs>
    <g id="Page-1" stroke="none" stroke-width="1" fill="none" fill-rule="evenodd">
        <g id="Artboard-Copy" transform="translate(-1009.000000, -1664.000000)" fill="#FFFFFF">
            <g id="Group-2-Copy" transform="translate(72.000000, 1565.000000)">
                <g id="Group" transform="translate(866.000000, 73.000000)">
                    <g id="Group-12" transform="translate(71.000000, 26.000000)">
                        <g id="design" transform="translate(20.000000, 21.000000)">
                            <path d="M81.0051453,24.3782434 C79.5530307,25.824099 78.519322,25.824099 77.0672074,24.3782434 L62.6198977,9.93814441 C61.1739361,8.48613616 61.1739361,7.4463506 62.6198977,6.00049493 L67.5268045,1.08786813 C68.97803,-0.362622711 71.330265,-0.362622711 72.7814904,1.08786813 L85.9120522,14.2174681 C87.3626493,15.6685873 87.3626493,18.02065 85.9120522,19.4717691 L81.0051453,24.3782434 Z M33.4021113,71.9901691 C32.6743886,72.7161206 31.4963381,72.7161206 30.7686153,71.9901691 L15.0168637,56.2334186 C14.6670405,55.8857899 14.4703285,55.4130006 14.4703285,54.9198433 C14.4703285,54.4266861 14.6670405,53.9538968 15.0168637,53.6062681 L56.9251373,11.7072166 C57.652145,10.9853476 58.8254726,10.9853476 59.5524803,11.7072166 L75.3042319,27.4578145 C76.0195127,28.1874934 76.0195127,29.3552861 75.3042319,30.084965 L33.4021113,71.9901691 Z M5.6827202,75.7924619 L11.2142924,81.3174763 L6.32402092,83.360263 L6.32402092,83.360263 C5.30480154,83.786016 4.13341997,83.3049165 3.70766695,82.2856971 C3.50591339,81.8027149 3.50154362,81.2598865 3.69549554,80.7737189 L5.6827202,75.7924619 Z M6.35340026,73.8359423 L11.2759666,61.0988158 L11.2759666,61.0988158 C11.6741515,60.0685136 12.832169,59.5560812 13.8624712,59.9542661 C14.1224497,60.054741 14.3585573,60.2084459 14.5556492,60.4055216 L26.5963291,72.4452119 L26.5963291,72.4452119 C27.3774098,73.2262284 27.3774618,74.4925584 26.5964454,75.2736391 C26.3993688,75.4707318 26.1632724,75.6244567 25.9033008,75.7249529 L13.1709553,80.6468454 L6.35340026,73.8359423 Z" id="Shape" fill-rule="nonzero"></path>
                            <path d="M66.8300665,46.2099807 L86.7814846,65.9340594 C87.5610358,66.7008531 88,67.7480273 88,68.840897 C88,69.9337667 87.5610358,70.9809409 86.7814846,71.7477347 L72.5750758,85.782895 C71.8070988,86.5761239 70.7446902,87.0164356 69.6401254,86.9992755 C68.5360651,87.0203227 67.4729297,86.5819692 66.705175,85.7891328 L63.5766428,82.7076354 L73.8677029,72.3652817 L70.97022,69.4646819 L60.6541816,79.8195113 L55.2838468,74.5173396 L65.6061298,64.1500345 L62.7086469,61.2431969 L52.3676302,71.6416912 L46.7162895,66.0525785 C46.8162027,65.9714865 66.8300665,46.2162186 66.8300665,46.2162186 L66.8300665,46.2099807 Z M21.1884657,40.8017656 L15.24363,34.9257118 L26.3964415,23.7162971 L23.4989586,20.8094595 L12.3274134,32.0375877 L6.95707862,26.735416 L18.1348684,15.4948121 L15.2498746,12.5879744 L4.04086196,23.8535298 L1.21831393,21.0527356 C0.425883682,20.2973627 -0.0154116588,19.2461766 0.000621747005,18.1521358 C-0.0189137062,17.0537803 0.422665007,15.997395 1.21831393,15.2390603 L15.4247227,1.20389996 C17.0538561,-0.401299986 19.6717347,-0.401299986 21.3008681,1.20389996 L41.2522861,20.9155029 L21.4132704,40.5335381 L21.1884657,40.8017656 Z" id="Combined-Shape" fill-opacity="0.6"></path>
                        </g>
                    </g>
                </g>
            </g>
        </g>
    </g>
</svg>