<?xml version="1.0" encoding="UTF-8"?>
<svg width="128px" height="128px" viewBox="0 0 128 128" version="1.1" xmlns="http://www.w3.org/2000/svg" xmlns:xlink="http://www.w3.org/1999/xlink">
    <!-- Generator: Sketch 47.1 (45422) - http://www.bohemiancoding.com/sketch -->
    <title>b8 copy</title>
    <desc>Created with Sketch.</desc>
    <defs></defs>
    <g id="Page-1" stroke="none" stroke-width="1" fill="none" fill-rule="evenodd">
        <g id="Artboard-Copy" transform="translate(-1010.000000, -1192.000000)" fill="#FFFFFF">
            <g id="Group-2" transform="translate(72.000000, 1093.000000)">
                <g id="Group" transform="translate(867.000000, 73.000000)">
                    <g id="教程" transform="translate(71.000000, 26.000000)">
                        <path d="M67.5777088,57.7888544 L112.844582,80.4222912 L112.844582,80.4222912 C114.820496,81.4102482 115.621394,83.8129404 114.633437,85.7888544 C114.246382,86.562964 113.618692,87.190654 112.844582,87.5777088 L67.5777088,110.211146 L67.5777088,110.211146 C65.3254888,111.337256 62.6745112,111.337256 60.4222912,110.211146 L15.1554175,87.5777088 L15.1554175,87.5777088 C13.1795035,86.5897518 12.3786062,84.1870596 13.3665631,82.2111456 C13.753618,81.437036 14.3813079,80.809346 15.1554175,80.4222912 L60.4222912,57.7888544 L60.4222912,57.7888544 C62.6745112,56.6627444 65.3254888,56.6627444 67.5777088,57.7888544 Z" id="Rectangle-16-Copy-2" opacity="0.6"></path>
                        <path d="M67.5777088,37.7888544 L112.844582,60.4222912 L112.844582,60.4222912 C114.820496,61.4102482 115.621394,63.8129404 114.633437,65.7888544 C114.246382,66.562964 113.618692,67.190654 112.844582,67.5777088 L67.5777088,90.2111456 L67.5777088,90.2111456 C65.3254888,91.3372556 62.6745112,91.3372556 60.4222912,90.2111456 L15.1554175,67.5777088 L15.1554175,67.5777088 C13.1795035,66.5897518 12.3786062,64.1870596 13.3665631,62.2111456 C13.753618,61.437036 14.3813079,60.809346 15.1554175,60.4222912 L60.4222912,37.7888544 L60.4222912,37.7888544 C62.6745112,36.6627444 65.3254888,36.6627444 67.5777088,37.7888544 Z" id="Rectangle-16-Copy" opacity="0.6"></path>
                        <path d="M67.5777088,17.7888544 L112.844582,40.4222912 L112.844582,40.4222912 C114.820496,41.4102482 115.621394,43.8129404 114.633437,45.7888544 C114.246382,46.562964 113.618692,47.190654 112.844582,47.5777088 L67.5777088,70.2111456 L67.5777088,70.2111456 C65.3254888,71.3372556 62.6745112,71.3372556 60.4222912,70.2111456 L15.1554175,47.5777088 L15.1554175,47.5777088 C13.1795035,46.5897518 12.3786062,44.1870596 13.3665631,42.2111456 C13.753618,41.437036 14.3813079,40.809346 15.1554175,40.4222912 L60.4222912,17.7888544 L60.4222912,17.7888544 C62.6745112,16.6627444 65.3254888,16.6627444 67.5777088,17.7888544 Z" id="Rectangle-16"></path>
                    </g>
                </g>
            </g>
        </g>
    </g>
</svg>