<?xml version="1.0" encoding="UTF-8"?>
<svg width="128px" height="128px" viewBox="0 0 128 128" version="1.1" xmlns="http://www.w3.org/2000/svg" xmlns:xlink="http://www.w3.org/1999/xlink">
    <!-- Generator: Sketch 47.1 (45422) - http://www.bohemiancoding.com/sketch -->
    <title>b_store</title>
    <desc>Created with Sketch.</desc>
    <defs></defs>
    <g id="Page-1" stroke="none" stroke-width="1" fill="none" fill-rule="evenodd">
        <g id="Artboard-Copy" transform="translate(-432.000000, -1664.000000)" fill="#FFFFFF">
            <g id="Group-2-Copy" transform="translate(72.000000, 1565.000000)">
                <g id="Group" transform="translate(289.000000, 73.000000)">
                    <g id="Group-14" transform="translate(71.000000, 26.000000)">
                        <path d="M30.5,22 C20.8301282,22 13,29.7555556 13,39.3333333 C13,43.9888889 14.8509615,48.2222222 17.8798077,51.3333333 C17.0608974,54.7444444 16.6233974,58.3111111 16.6233974,61.9777778 C16.6233974,78.4555556 25.3846154,92.9 38.5432692,101 L42.0432692,86.7666667 C34.8974359,80.8333333 30.3541667,71.9333333 30.3541667,61.9777778 C30.3541667,60.1666667 30.5,58.3888889 30.7916667,56.6666667 C40.3269231,56.5111111 48,48.8111111 48,39.3333333 C48,29.7666667 40.1698718,22 30.5,22 Z" id="Shape" fill-rule="nonzero" opacity="0.6"></path>
                        <path d="M81.233566,31.2126866 C80.4720013,33.1716418 80.0576205,35.3097015 80.0576205,37.5373134 C80.0576205,47.1753731 87.874858,55 97.5288103,55 C107.171563,55 115,47.1865672 115,37.5373134 C115,27.8992537 107.182763,20.0746269 97.5288103,20.0746269 C95.2665152,20.0746269 93.1050154,20.5 91.1227074,21.2835821 C83.6190553,16.0671642 74.5138776,13 64.6919331,13 C58.0394416,13 51.7117351,14.3992537 46,16.9291045 L53.9740302,28.5037313 C57.3338744,27.3395522 60.9401071,26.7014925 64.6919331,26.7014925 C70.7284532,26.7014925 76.3841909,28.3470149 81.233566,31.2126866 Z" id="Path"></path>
                        <path d="M80.9896907,91.2612947 C78.1044907,85.5327596 72.233444,81.6078623 65.4453958,81.6078623 C55.8168793,81.6078623 48,89.5257188 48,99.3039312 C48,109.0708 55.8056963,117 65.4453958,117 C72.6807618,117 78.8761139,112.530608 81.5264721,106.178173 C99.3073563,99.6442402 112,82.3678858 112,62.0854684 C112,61.0531977 111.966451,60.020927 111.899353,59 L98.2897082,63.5601408 C97.7641097,75.5843927 90.8977809,85.9411305 80.9896907,91.2612947 Z" id="Path" opacity="0.6"></path>
                    </g>
                </g>
            </g>
        </g>
    </g>
</svg>