<?xml version="1.0" encoding="UTF-8"?>
<svg width="128px" height="128px" viewBox="0 0 128 128" version="1.1" xmlns="http://www.w3.org/2000/svg" xmlns:xlink="http://www.w3.org/1999/xlink">
    <!-- Generator: Sketch 47.1 (45422) - http://www.bohemiancoding.com/sketch -->
    <title>b_trail</title>
    <desc>Created with Sketch.</desc>
    <defs></defs>
    <g id="Page-1" stroke="none" stroke-width="1" fill="none" fill-rule="evenodd">
        <g id="Artboard-Copy" transform="translate(-143.000000, -1192.000000)" fill="#FFFFFF">
            <g id="Group-2" transform="translate(72.000000, 1093.000000)">
                <g id="Group" transform="translate(0.000000, 73.000000)">
                    <g id="Group-18" transform="translate(71.000000, 26.000000)">
                        <path d="M33.0158237,91 C33.005301,91.1660211 33,91.332701 33,91.5 C33,100.060414 46.8791728,107 64,107 C81.1208272,107 95,100.060414 95,91.5 C95,91.332701 94.994699,91.1660211 94.9841763,91 L95,91 L95,57 L33,57 L33,91 L33.0158237,91 Z" id="Combined-Shape" opacity="0.6"></path>
                        <path d="M67.5777088,19.7888544 L115.844582,43.9222912 L115.844582,43.9222912 C117.820496,44.9102482 118.621394,47.3129404 117.633437,49.2888544 C117.246382,50.062964 116.618692,50.690654 115.844582,51.0777088 L67.5777088,75.2111456 L67.5777088,75.2111456 C65.3254888,76.3372556 62.6745112,76.3372556 60.4222912,75.2111456 L12.1554175,51.0777088 L12.1554175,51.0777088 C10.1795035,50.0897518 9.37860615,47.6870596 10.3665631,45.7111456 C10.753618,44.937036 11.3813079,44.309346 12.1554175,43.9222912 L60.4222912,19.7888544 L60.4222912,19.7888544 C62.6745112,18.6627444 65.3254888,18.6627444 67.5777088,19.7888544 Z" id="Rectangle-13"></path>
                        <path d="M17,57 L21,59 L21,87 L21,87 C21,88.1045695 20.1045695,89 19,89 L19,89 L19,89 C17.8954305,89 17,88.1045695 17,87 L17,57 Z" id="Rectangle-15"></path>
                    </g>
                </g>
            </g>
        </g>
    </g>
</svg>