<svg t="1618921987069" fill="#ffffff" class="icon" viewBox="0 0 1024 1024" version="1.1"
    xmlns="http://www.w3.org/2000/svg" p-id="1072" width="200" height="200">
    <path d="M841.9702 123.885542l-494.870878 0c-48.327682 0-86.179778 38.568411-86.179778 87.799672l0 53.549613-55.872518 0c-49.324382 0-89.452311 39.387056-89.452311 87.799672l0 287.336194c0 48.420803 40.127929 87.799672 89.452311 87.799672l31.117718 0 0 151.965064 0 1.527796 0 0.413416 0.062422 0c0.062422 5.66707 1.901303 11.350512 6.01704 15.871479 4.739954 5.183046 11.193947 7.817036 17.71036 7.817036 5.767354 0 11.536754-2.057869 16.120143-6.251378l188.007955-171.343413 221.37797 0 85.453231 77.893045c4.615111 4.185322 10.382465 6.251378 16.150842 6.251378 6.485715 0 12.970406-2.63399 17.679661-7.817036 4.145413-4.520967 5.986341-10.211573 6.048763-15.878642l0.062422 0 0-0.405229 0-1.527796L810.855552 634.719996l31.116695 0c49.293683 0 89.419566-39.387056 89.419566-87.799672l0-335.235111C931.390789 163.272597 891.264906 123.885542 841.9702 123.885542zM445.531146 680.279634l-161.474648 147.171897L284.056498 680.366615l-79.008448-0.085958c-22.542412 0-41.561581-18.278295-41.561581-39.908942L163.486468 353.034499c0-21.630646 19.019169-39.908942 41.561581-39.908942l55.872518 0 0 233.794767c0 49.231261 37.851073 87.799672 86.179778 87.799672l235.836263 0 49.983391 45.559639L445.531146 680.279634zM883.500059 546.920324c0 21.630646-18.987447 39.908942-41.528835 39.908942l-79.007425 0.077771 0 147.086963L601.487104 586.829266 347.099323 586.829266c-21.482267 0-38.289048-17.529235-38.289048-39.908942l0-335.235111c0-22.379707 16.806781-39.908942 38.289048-39.908942l494.870878 0c22.542412 0 41.528835 18.278295 41.528835 39.908942L883.499036 546.920324z" p-id="1073"></path>
</svg>
