<?xml version="1.0" encoding="UTF-8" standalone="no"?>
<svg width="32px" height="32px" viewBox="0 0 32 32" version="1.1" xmlns="http://www.w3.org/2000/svg" xmlns:xlink="http://www.w3.org/1999/xlink">
    <!-- Generator: Sketch 47.1 (45422) - http://www.bohemiancoding.com/sketch -->
    <title>github</title>
    <desc>Created with Sketch.</desc>
    <defs></defs>
    <g id="Page-1" stroke="none" stroke-width="1" fill="none" fill-rule="evenodd" opacity="0.798332556">
        <g id="github" fill-rule="nonzero" fill="#FFFFFF">
            <path d="M0,16.1005137 C0,23.1331768 4.47802442,29.112296 10.7187592,31.3078291 C11.5591779,31.5216139 11.4310245,30.9177511 11.4310245,30.5092418 L11.4310245,27.7196278 C6.57822725,28.2921951 6.38413786,25.0584357 6.05639522,24.5209069 C5.39722252,23.388731 3.84391366,23.0993965 4.30655952,22.5612386 C5.41247218,21.9887028 6.5379469,22.7062361 7.84101138,24.6468755 C8.78458394,26.0530055 10.6253863,25.8171093 11.5598029,25.5812131 C11.7630483,24.7353208 12.2006635,23.9803272 12.8006187,23.3917819 C7.7757316,22.4856889 5.6785912,19.3975561 5.6785912,15.7233314 C5.6785912,13.94307 6.26267183,12.3046923 7.40645864,10.9832962 C6.67831875,8.80370978 7.47542584,6.94173396 7.58161096,6.66466602 C9.65981428,6.47607487 11.8161408,8.16175761 11.9846058,8.29382802 C13.1656105,7.97316647 14.5126115,7.80300668 16.0189215,7.80300668 C17.5343874,7.80300668 18.8875133,7.97929977 20.0752366,8.3030437 C20.47804,7.99464875 22.4811826,6.54797603 24.4128892,6.72426912 C24.5160431,7.00130561 25.2942444,8.82217259 24.6100722,10.9704006 C25.7696712,12.2948791 26.3598767,13.9461524 26.3598767,15.7325471 C26.3598767,19.4122761 24.2505491,22.5041203 19.2097873,23.3973176 C20.0502059,24.2340257 20.5720379,25.3913953 20.5720379,26.674702 L20.5720379,30.7260776 C20.6001311,31.0498215 20.5720379,31.3711122 21.1097446,31.3711122 C27.4407899,29.2228842 32,23.1995108 32,16.1035961 C32,7.20527718 24.8346609,9.88512479e-07 16.0006094,9.88512479e-07 C7.15924545,-0.0030813884 0,7.20282386 0,16.1005137 Z" id="Shape"></path>
        </g>
    </g>
</svg>