<?xml version="1.0" encoding="UTF-8" standalone="no"?>
<svg width="12px" height="14px" viewBox="0 0 12 14" version="1.1" xmlns="http://www.w3.org/2000/svg" xmlns:xlink="http://www.w3.org/1999/xlink">
    <!-- Generator: Sketch 47.1 (45422) - http://www.bohemiancoding.com/sketch -->
    <title>Shape</title>
    <desc>Created with Sketch.</desc>
    <defs></defs>
    <g id="Page-1" stroke="none" stroke-width="1" fill="none" fill-rule="evenodd">
        <g id="编辑" fill-rule="nonzero" fill="#2EA2F8">
            <path d="M5.2444678,10.7021274 L10.5212248,3.76789094 C10.7791763,3.42893776 10.7125589,2.94389238 10.3729629,2.68650332 L8.47537148,1.24912646 C8.13569507,0.991817758 7.6494443,1.05819408 7.39165345,1.39714726 L2.11457507,8.33106224 L5.2444678,10.7021274 Z M0.976293453,8.04522619 C0.98931157,8.02135964 1.0042583,7.99821632 1.02121399,7.97603731 L6.52635049,0.741660987 C7.14647892,-0.0732570404 8.31569865,-0.232929865 9.13230422,0.385832466 L11.0300563,1.82320933 C11.8468226,2.44197166 12.0068169,3.60837883 11.3866081,4.42313614 L5.85704251,11.6894952 C5.84410475,11.7063706 5.83036341,11.7224423 5.81589883,11.7375498 C5.75605802,11.8383296 5.6652354,11.9170595 5.55698296,11.9619917 L0.758360538,13.9499867 C0.576631337,14.0252475 0.368436003,13.9966157 0.213769327,13.8750924 C0.0593010532,13.7536803 -0.0172513785,13.558101 0.0137564126,13.3640911 L0.817343857,8.34962511 C0.835816895,8.23357405 0.89161935,8.12670869 0.976293453,8.04522619 L0.976293453,8.04522619 Z M1.74685345,9.41333381 L1.23995049,12.5767361 L4.26722511,11.3224969 L1.74685345,9.41333381 Z" id="Shape"></path>
        </g>
    </g>
</svg>