<?xml version="1.0" standalone="no"?><!DOCTYPE svg PUBLIC "-//W3C//DTD SVG 1.1//EN" "http://www.w3.org/Graphics/SVG/1.1/DTD/svg11.dtd"><svg t="1502693749339" class="icon" style="" viewBox="0 0 1024 1024" version="1.1" xmlns="http://www.w3.org/2000/svg" p-id="2085" xmlns:xlink="http://www.w3.org/1999/xlink" width="200" height="200"><defs><style type="text/css"></style></defs><path d="M950.8904 911.242913 713.135438 701.398628c22.323425-23.072485 41.117466-48.187489 56.371892-75.345012 15.255449-27.163663 27.158547-56.559157 35.715433-88.186482 8.562003-31.623231 12.840446-64.182788 12.840446-97.668437 0-68.460208-16.742313-131.709741-50.228985-189.755762-33.486672-58.038858-79.251995-103.804181-137.296993-137.290853-58.039881-33.486672-121.29453-50.228985-189.756785-50.228985-68.460208 0-131.710764 16.743336-189.755762 50.228985-58.038858 33.486672-103.991446 79.251995-137.853671 137.290853C79.313905 308.488956 62.385351 371.739513 62.385351 440.199721c0 68.461231 16.928554 131.716904 50.78464 189.755762 33.863249 58.047044 79.814814 103.997586 137.853671 137.854695 58.044997 33.857109 121.295554 50.79078 189.755762 50.79078 42.421158 0 83.346243-6.883781 122.783441-20.651342 39.438221-13.766538 75.530231-33.30043 108.276029-58.601676l238.868319 210.962759c2.974751 2.975774 6.136767 5.025457 9.488095 6.135744 3.347235 1.118474 6.883781 1.680269 10.600429 1.680269 7.444553 0 14.143115-2.606361 20.094664-7.816013 2.975774-3.722788 5.210675-8.000208 6.698562-12.83533 1.487887-4.839215 1.487887-9.674337 0-14.515598C956.101075 918.127717 953.867198 914.219711 950.8904 911.242913L950.8904 911.242913zM440.780447 762.789836c-89.296769 0-165.382655-31.444153-228.261751-94.322226-62.880119-62.879096-94.322226-138.780787-94.322226-227.707119 0-88.926332 31.442106-164.825976 94.322226-227.705072 62.879096-62.881143 138.777717-94.323249 227.705072-94.323249 88.926332 0 164.826999 31.442106 227.707119 94.323249 62.879096 62.879096 94.322226 138.593522 94.322226 227.143277 0 90.784656-32.374338 167.808914-97.111758 231.058446C601.890798 731.531925 527.102465 762.0418 440.780447 762.789836L440.780447 762.789836zM440.780447 762.789836" p-id="2086"></path></svg>