<?xml version="1.0" standalone="no"?><!DOCTYPE svg PUBLIC "-//W3C//DTD SVG 1.1//EN" "http://www.w3.org/Graphics/SVG/1.1/DTD/svg11.dtd"><svg t="1502693727354" class="icon" style="" viewBox="0 0 1024 1024" version="1.1" xmlns="http://www.w3.org/2000/svg" p-id="1431" xmlns:xlink="http://www.w3.org/1999/xlink" width="200" height="200"><defs><style type="text/css"></style></defs><path d="M817.243 742.793l152.765 153.11-76.72 76.547-152.765-153.11zM685.498 258.674c-118.486-118.541-310.63-118.541-429.171 0-118.542 118.542-118.542 310.686 0 429.172 54.911 54.928 130.781 88.903 214.586 88.903 83.804 0 159.674-33.977 214.585-88.903 54.928-54.913 88.903-130.782 88.903-214.587 0-83.804-33.977-159.674-88.903-214.585zM190.258 753.915c-71.856-71.838-116.303-171.092-116.303-280.727 0-219.233 177.723-396.956 396.956-396.956s396.956 177.723 396.956 396.956c0 109.635-44.446 208.89-116.302 280.726-71.833 71.814-171.057 116.229-280.656 116.229s-208.822-44.415-280.656-116.229l0.003 0.001z" p-id="1432"></path></svg>